<svg xmlns="http://www.w3.org/2000/svg" width="974.899" height="716.485" viewBox="0 0 974.899 716.485">
  <defs>
    <style>
      .cls-1 {
        fill: #01d1fe;
      }
    </style>
  </defs>
  <path id="Elspeth_Elephant" data-name="Elspeth Elephant" class="cls-1" d="M534.722,59.6s99.517,10.72,141.519,41.236,69.313,80.345,69.313,80.345L771.617,237.2s10.55,25.666,26.063,35.139,17.7,32.076,43.42,39.563,39.676,23.029,39.676,23.029-60.209-10.919-77.311-31.225-25.184-16.307-44.781-41.974c0,0-6.012,66.278-.908,114.633,0,0,7.572,28.219,21.157,49.943s27.4,64.889,27.4,64.889,6.211,16.818,5.729,23.284c-.454,6.466-56.834,19.257-56.834,19.257a124.651,124.651,0,0,0-10.153-46.71c-10.493-24.078-44.526-46.937-44.526-46.937s-15.144-13.131-23.823-27.85c-8.707-14.719-15.939,1.617-15.939,1.617s-33.522,58.451-21.044,98.751c0,0,1.446,1.645-.17,9.586s-53.2,3.659-58.111-5.871,3.176-58.933,6.466-62.308,7.374-24.5,1.22-39.733c-6.154-15.2-7.005-18.066-17.9-19.03l-10.862-.964h0l-1.134.057s-81.2-3.233-93.022-21.157c0,0-7.317-.766-6.523,4.878.766,5.672-10.919,70.646-3.091,108.933,0,0,3.375,17.215-1.361,27.964-4.736,10.777-64.662,30.317-64.662,30.317s-3.29-139.108-16.676-167.384c0,0-49.8,22.461-55.927,50.113,0,0-4.027,3.261-.4,11.089,3.63,7.8,38.513,73.851,37.124,79.806-1.39,5.984-56.749,28.928-67.073,25.638-10.352-3.29-1.446-18.548-1.446-18.548s-4.367-34.8-20.675-56.409-18.037-30.317-20.675-49.461c-2.666-19.143,69.285-127,69.285-127s-42.512-52.041-68.916-58.99c0,0-11.968,50.992-36.443,68.6-24.475,17.64-77.991,25.269-66.137,22.66,1.9-.425,30.97-18.576,40.045-29.977s22.688-41.378,21.384-45.178-11.855,3.432-11.855,3.432-52.836,29.892-64.236,31.253-90.243-5.757-101.162-28.7c0,0-31.2-33.21-26.29-76.97S2.849,110.057,53.955,58.5l28.446.284a146.279,146.279,0,0,0-29.722,47.787c-2.155,6.381-4.226,13.358-6.1,20.9-2.042,8.31-3.517,16.109-4.594,23.341a76.018,76.018,0,0,0-.511,19.8c.539,5.19.822,8.962,2.865,14.18,5.474,13.925,6.693,18.746,9.331,22.717a26.319,26.319,0,0,0,3.715,4.368,31.071,31.071,0,0,0,15.2,7.771h0c5.332-.709,11.855-1.73,19.626-3.12a120.766,120.766,0,0,0,22.235-24.106c13.982-20.136,11.968-30.8,23.227-63.981,19.313-56.948,41.633-73.907,47.9-78.332a94.147,94.147,0,0,1,11.94-7.175,108.064,108.064,0,0,1,20.646-4.963A116.23,116.23,0,0,1,261.213,40.4c12.167,3.035,13.017,5.417,23.766,6.778,0,0,3.488.425,22.518,1.106l93.164-40.3s7.43-6.92,57-7.969,71.809,43.306,71.809,43.306Z" transform="matrix(0.978, 0.208, -0.208, 0.978, 113.369, 0)"/>
</svg>
