<svg id="Group_8" data-name="Group 8" xmlns="http://www.w3.org/2000/svg" width="99.706" height="58.928" viewBox="0 0 99.706 58.928">
  <path id="Path_49" data-name="Path 49" d="M224.42,304.27c.976.021,1.774.033,2.4.033a.455.455,0,0,0,.185-.033Z" transform="translate(-188.664 -255.377)" fill="#cf7cb3"/>
  <path id="Path_50" data-name="Path 50" d="M100.283,17.955a37.658,37.658,0,0,0-9.2-10.295c-.217-.126-.539-.3-.943-.484a5.381,5.381,0,0,0-1.55-.52,3.977,3.977,0,0,0-1.09,0,2.106,2.106,0,0,0-.871.762c-.518.834-.213,1.847.181,3.088a12.78,12.78,0,0,0,1.416,3.016c.837,1.311,1.484,2.738,2.3,4.063,1.022,1.656,2.4,4.674,3.875,10.651.5,4.2-.1,7.63-1.308,9.263a5.5,5.5,0,0,1-2.053,1.736,5.4,5.4,0,0,1-2.161.335c-1.453,0-3.559.4-5.231-2.143s-8.155-20.89-13.414-26.52-8.312-4.761-9.037-5.415c0,0-6.067-.654-7.957,0A27.941,27.941,0,0,0,46.734,8l-11.687.392v.054c-2.787-.149-5.094-.216-6.907-.216-3.056,0-6.366.128-9.994.319s-7.576.319-11.967.319c-.319,0-.383.191-.319.508-.064,0-.064,0-.064.064,0,1.019.064,5.6.128,13.751.064,1.718.064,3.691.064,5.92.064,10.5,0,18.714-.255,24.57a.284.284,0,0,0,.128.383.284.284,0,0,0,.383.128,131.636,131.636,0,0,1,19.8-.574l5.475.191,3.533.108c2.648.082,4.782.144,6.417.178h7.61s2.786-5.573,6.5-6.037A20.309,20.309,0,0,0,59.244,56.1c4.98,6.534,12.425,7.774,14.264,8.027l2.6-.217a22.375,22.375,0,0,1-8.218-6.572A22.119,22.119,0,0,1,64.426,50.8c2.086,1.563,10.739,7.677,21.81,5.933a23.208,23.208,0,0,0,12.794-5.984c2.645-2.508,4.828-6.173,6.121-11.794C105.152,38.953,107.114,26.746,100.283,17.955Zm-81.5,6.572.191-4.01a109.1,109.1,0,0,1,11.2-.445c1.779,0,3.394,0,4.87.023v6.178c-.379-.007-.752-.016-1.115-.028H24.7c-2.8,0-4.837,0-6.047.064A14.585,14.585,0,0,0,18.781,24.527ZM31.576,42.669a125.244,125.244,0,0,0-12.6.383,48,48,0,0,1-.508-6.3,39.84,39.84,0,0,1,4.582-.446,63.7,63.7,0,0,1,6.556.191,8.512,8.512,0,0,1,1.274.064c1.617.147,3.006.219,4.17.244v5.946Q33.381,42.7,31.576,42.669Z" transform="translate(-5.707 -5.202)" fill="#cf7cb3"/>
</svg>
