<svg id="Voice_Acting_Pie" data-name="Voice Acting Pie" xmlns="http://www.w3.org/2000/svg" width="560.576" height="503.344" viewBox="0 0 560.576 503.344">
  <defs>
    <style>
      .cls-1 {
        fill: #007a94;
      }

      .cls-2 {
        fill: #fff;
        font-size: 22px;
        font-family: Montserrat-Bold, Montserrat;
        font-weight: 700;
        opacity: 0;
      }
    </style>
  </defs>
  <path id="Voice_Acting_Pie-2" data-name="Voice Acting Pie" class="cls-1" d="M383.52,489.04c-11.21-.69-22.22-.67-32.99-2.23-11.47-1.66-22.82-4.48-34.07-7.4-13.6-3.52-27.2-7.06-39.86-13.62-7.28-3.77-15.74-5.33-22.86-9.33-14.81-8.32-29.32-17.24-43.52-26.58-18.02-11.85-33.03-27.31-47.61-42.98a263.129,263.129,0,0,1-37.4-50.57c-5.07-9.06-10.69-17.88-15.01-27.28a271.509,271.509,0,0,1-13.1-33.63c-4.54-14.81-8.03-29.96-11.59-45.05-1.17-4.95-.59-10.3-1.74-15.26-3.95-17.04-2.98-34.33-2.67-51.51.2-11.01,1.84-22.02,3.39-32.95,1.4-9.95,3.15-19.89,5.49-29.65A209.24,209.24,0,0,1,98.5,72.59c5.71-14.41,12.35-28.45,18.7-42.6.93-2.08,2.64-3.81,3.58-5.89,1.27-2.8,3.13-3.28,5.59-1.96q8.745,4.725,17.38,9.62c11.77,6.68,23.54,13.35,35.24,20.15,11.99,6.97,23.83,14.19,35.84,21.12,17.47,10.08,35.07,19.96,52.55,30.01,6.85,3.94,13.4,8.42,20.38,12.08,3.92,2.06,4.02,4.5,2.33,7.67a102.533,102.533,0,0,0-12.29,40.9c-.43,5.55-2.35,11.23-1.66,16.59,2.39,18.53,6.26,36.66,16.01,53.15a124.245,124.245,0,0,0,28.41,32.87,103.12,103.12,0,0,0,39.82,20.41c8.54,2.25,17.46,3.3,26.28,4.18,4.14.41,5.47,1.67,5.34,5.71-.24,7.89-.07,15.79-.07,23.68V480.44C391.92,489.04,391.92,489.04,383.52,489.04Z" transform="translate(619.525 174.574) rotate(120)"/>
  <text id="Voice_Acting" data-name="Voice Acting" class="cls-2" transform="translate(195.103 223)"><tspan x="0" y="0">Voice Acting</tspan></text>
</svg>
