<svg xmlns="http://www.w3.org/2000/svg" xmlns:xlink="http://www.w3.org/1999/xlink" width="1967.529" height="268.209" viewBox="0 0 1967.529 268.209"><defs><clipPath id="a"><rect width="1960.54" height="243.38" fill="none"/></clipPath><linearGradient id="b" x1="0.5" x2="0.5" y2="1" gradientUnits="objectBoundingBox"><stop offset="0" stop-color="#fff" stop-opacity="0"/><stop offset="1" stop-color="#fff"/></linearGradient></defs><g transform="translate(0 -34.137)"><g transform="translate(6.989 34.137)" opacity="0.15" clip-path="url(#a)"><g transform="translate(0.02 -20.64)"><path d="M0,408l5.2-.63c-.14.38-.28.77-.43,1.15,1.94.83,3.89,2.36,5.83,2.35,4.85-.04,8.37,2.01,11.97,5A31.844,31.844,0,0,0,41.35,423c.82.05,2.14-.1,2.38.33,3.18,5.49,10.14,5.68,14.02,10.28,4.54,5.38,11.5,6.98,17.41,10.21.96.52,1.25,2.28,1.66,3.1-7.92,3.93-16.33,5.29-21.82,12.1H54c-5.29-5.09-11.77-6.66-18.92-6.85-3.67-.1-8.16.96-10.06-4.05a2.241,2.241,0,0,0-1.62-1.01c-3.59-.33-3.53-2.24-2.93-5.18.43-2.08.16-6.09-.71-6.37-4.96-1.58-4.49-6.36-6.57-9.61-3.2-.6-7.61.17-7.16-5.23.4-4.68-2.36-5.59-6.05-5.71C0,412.66,0,410.33,0,408Z"/><path d="M478.11,459a30.942,30.942,0,0,1-3.45-1.29c-2.2-1.11-4.3-2.39-6.49-3.5-1.94-.98-3.94-1.83-6.39-2.96-.03-2.22-.17-4.96-4.75-3.75-1.18.31-3.04-1.94-4.57-3.03-2.06-1.47-4.1-2.97-5.44-3.95,3.43-3.3,7.26-6.97,11.09-10.65-.32-.54-.65-1.07-.97-1.61,1.94,0,3.99.4,5.79-.11,2-.56,3.72-2.06,5.66-2.94a18.3,18.3,0,0,1,4.37-1.28c2.03-.35,4.1-.49,6.34-.73,1.21,5.25,4,8.68,10.12,9.24,4.99.46,8.62,5.31,8.45,10.3-.16,4.85-.65,9.69-.94,13.79-2.7,1.14-4.25,1.8-5.81,2.47Z"/><path d="M0,415c3.69.12,6.44,1.04,6.05,5.71-.46,5.4,3.96,4.63,7.16,5.23,2.08,3.26,1.61,8.04,6.57,9.61.87.28,1.13,4.28.71,6.37-.6,2.94-.66,4.85,2.93,5.18a2.183,2.183,0,0,1,1.62,1.01c1.9,5.01,6.39,3.95,10.06,4.05,7.15.19,13.62,1.76,18.92,6.85H.01Q-.005,436.99,0,415Z" fill="#fff"/><path d="M285.07,459c-1.31-.92-2.65-2.65-3.91-2.6-3.81.16-5.35-1.61-5.96-5.01-.81-4.56-.96-4.61-4.7-4.08-1.89-3.47-3.43-6.6-5.26-9.55-2.05-3.31-1.04-5.65,3.14-6.02.17-2.69.35-5.44.54-8.45h6.77c2.58,2.12,4.44,3.53,6.17,5.09,2.21,2.02,4.26,4.21,6.47,6.23,3.3,3.02,6.79,5.83,9.94,8.99.95.95,1.02,2.78,2.27,3.18,2.85,2.1,5.49,4.59,8.6,6.2,2.79,1.45,6.09,1.93,9.78,3.02.03.5.1,1.75.17,3Z"/><path d="M0,141.98c2.08-3.82,3.85-8.49,9.5-6.88a23.748,23.748,0,0,1,8.64,4.64c4.13,3.52,7.14,9.41,11.76,11.02,4.52,1.57,5.1,6.97,9.83,7.32.65.05,1.17,1.72,2.38,3.63h-15c-3.67,0-7.37-.34-10.99.06-6.41.71-11.87-.7-16.1-5.79Q-.01,148.99,0,141.98Z"/><path d="M562.74,338.23v26.18c-3.22,1.48-5.58,3.47-7.94,3.47-4.42-.01-6.6-3.23-7.63-7.46-.47-1.93-1.84-3.65-2.81-5.46-.42.13-.84.27-1.27.4v-8.72c-3.41-.91-8.24-.82-9.24-2.74-2.14-4.08-5.07-3.84-10.36-3.51,7.11-6.4-.29-15.69,7.42-20.94.27-7.76,4.85-5.63,9.67-4.71,4.18.8,8.62.14,12.95.29,1.59.06,3.75.05,4.66,1.01,3.66,3.9,7.73,4.3,12.65,3.03,4.78-1.23,8.57,1.57,12.4,4.03,1.88,1.21,4.18,1.77,6.98,2.9-6.95,4.21-12.33,9.56-20.39,9.03a4.161,4.161,0,0,0-2.49.99,35.25,35.25,0,0,0-3.02,2.97C563.79,338.75,563.26,338.49,562.74,338.23Z"/><path d="M534.31,96c6.72-6.17-.02-15.39,7.36-20.71.35-7.97,5.2-5.22,9.79-4.5,4.23.66,8.67-.15,12.95.32,2.35.26,4.53,1.91,6.84,2.78,2.01.77,4.48,2.38,6.09,1.8,6.11-2.19,11.14.03,16.22,2.77,2.22,1.2,4.43,2.4,6.96,3.77-6.79,4.07-12.35,9.03-20.35,8.92-1.8-.03-3.63,2.23-6.76,3v26.36c-3.33,1.43-5.7,3.29-8.05,3.27-4.83-.03-6.67-3.66-7.5-8.04-.24-1.29-1.58-2.36-2.32-3.58a8.437,8.437,0,0,1-1.53-3.11,57.775,57.775,0,0,1-.07-6.39c-3.81-1.02-8.85-1-9.68-2.87C542.36,95.59,539.42,96.35,534.31,96Z"/><path d="M249.37,47.03h-7.92c5.3-6.45,2.41-13.7,5.93-20.79,3.65-7.34,6.77-5.75,11.97-4.64,3.03.64,6.31.14,9.47.12,3.78-.02,7.39-.22,10.07,3.6.79,1.13,3.98,1.33,5.78.85,5.7-1.5,10.61.12,15.44,2.82,2.22,1.24,4.46,2.43,6.94,3.78-3.32,2.26-6.27,4.26-9.21,6.26.17.27.34.53.51.8-3.86.64-7.73,1.2-11.58,1.93-4.75.9-7.69,7.29-6.87,12.27.75,4.56.17,9.34.09,14.03a17.124,17.124,0,0,1-.48,3.04c-2.14,1.19-4.17,3.24-6.06,3.13-2.53-.15-5.71-1.36-7.26-3.24-2.09-2.54-.53-7.28-5.1-9-.77-.29-.56-3.72-.45-5.69.16-2.91-.72-4.36-3.92-4.11C253.04,52.47,249.82,51.66,249.37,47.03Z"/><path d="M421.32,285.72c-1.52-5.3-4.22-9.15-9.55-10.9-1.01-.33-1.37-2.64-.49-3.41,1.66-2.53,5.3-5.9,4.64-7.45-2.71-6.39,3-7.75,5.56-8.08,4.23-.55,4.57-2.65,4.67-6.35,1.74.5,3.1.77,4.37,1.28,5.14,2.07,11.93-.83,15.82,5.33.4.64,2.51.2,2.68,1.35,4.62,5.96,9.23,11.93,13.95,18.01,7.24.95,15.06,1.98,22.88,3,0,.61.01,1.23.01,1.84-3.91,2.2-6.07,7.76-12.3,5.63-.85-.29-2.52.84-3.39,1.72-4.02,4.09-8.74,5.02-14.13,3.65a12.656,12.656,0,0,0-2.95-.34c-4.09-.04-7.38-1.46-11.1-3.52-3.98-2.21-9.69-1.36-14.65-1.74C425.37,285.6,423.39,285.72,421.32,285.72Z"/><path d="M72.83,215.25c.37-7.77.81-15.54,1-23.32.02-.89-1.24-2.14-2.2-2.66-2.56-1.37-3.81-3.04-2.06-6.49,4.19,2.43,8.32,4.95,12.57,7.24,1.49.8,3.61.6,4.88,1.59,3.39,2.64,6.27,5.97,9.76,8.46,2.02,1.44,5.21,3.02,7.16,2.37,3.43-1.13,5.24-.1,7.66,1.91,8.8,7.3,10.1,16.69,8.21,27.49-1.33.26-2.69.53-3.91.77-.28.53-.55.81-.56,1.1-.27,5.68-3.21,9.01-8.65,10.67-1.78.54-3.14,2.44-4.69,3.72a47.945,47.945,0,0,0-3.57-4.87c-.56-.6-2.48-.38-2.62-.87-.83-2.78-.8-5.92-2.05-8.44-1.06-2.14-3.46-3.61-5.23-5.54q-6.57-6.9-13.13-13.81C74.54,214.8,73.69,215.03,72.83,215.25Z"/><path d="M220.81,285.92c-3.86-.21-7.18-1.04-7.07-7.01.08-4.47-4.09-3.99-7.35-3.4-2.22-6.15,2.05-7.29,6.45-8.33-.12.45-.24.89-.36,1.34,2.09.82,4.2,2.35,6.28,2.33,4.72-.06,8.12,2.1,11.57,4.87a32.709,32.709,0,0,0,18.81,7.25c.66.04,1.55-.2,1.96.14,5.48,4.48,10.89,9.04,16.32,13.58.24.2.47.7.65.67,5.86-.94,8.75,4.73,13.59,6.14,1.34.39,2.33,1.96,3.53,3.03-4.83,2.27-8.5,3.9-12.08,5.71-3.66,1.85-7.22,3.89-11.46,6.19-7.14-7.1-17.31-5.87-27.11-6.94-.59-1.12-1.14-3.54-2.12-3.74-5.24-1.03-4.38-4.4-3.85-8.05.31-2.15.28-3.85-2.79-5.25C223.44,293.4,222.55,289.14,220.81,285.92Z"/><path d="M289.7,170.27c.17,1.44.34,2.88.51,4.25,2.97.64,7.01.32,8.11,1.96,2.9,4.36,7.69,4.97,11.36,7.6,1.08.77,1.19,2.88,1.77,4.42-4.3,1.12-7.07,7.3-5.16,12.42,2.48,6.63-.2,11.41-4.58,15.73-3.36,3.31-11.62.96-13.45-3.54a4.985,4.985,0,0,0-2.04-2.03c-5.04-3.1-5.12-3.17-5.95-8.54-7.64-2.29-7.64-2.29-7.65-10.61,0-6.83.06-13.66-.04-20.49a45.643,45.643,0,0,0-.84-5.84C278.9,161.62,284.22,165.94,289.7,170.27Z"/><path d="M491.67,185.06a51.927,51.927,0,0,1-12.78-9.36c-.47-.5-1.48-.55-2.26-.71a18.363,18.363,0,0,1-14.69-17.62c0-3.33-.19-6.67.06-9.98.23-3.06.94-6.09,1.56-9.89,5.21.52,10.22.98,15.22,1.59.59.07,1.03,1.01,1.62,1.45,1.13.85,2.26,2.23,3.48,2.32,3.67.27,6.71.53,8.82,4.57.97,1.86,4.68,2.29,7.15,3.37.59.26,1.18.52,1.05.46a91.38,91.38,0,0,0-1.66,9.25,52.92,52.92,0,0,0,.02,10.97C500.12,178.05,497.68,182.45,491.67,185.06Z"/><path d="M53.65,29.41c6.02.61,12.79-.68,15.64,2.08,3.92,3.8,8.39,2.75,12.17,4.79.4.21,1.08.49,1.09.74.06,4.45,3.31,4.47,6.46,4.92a7.348,7.348,0,0,1,2.68,1.35,71.619,71.619,0,0,0-1.62,8.38,63.793,63.793,0,0,0,.01,11.48c.75,6.61-1.32,11.4-8.11,14.12-4.2-2.89-8.75-6.02-14.93-10.27-7.61-.94-14.38-8.4-14.24-18.23C52.86,42.57,53.32,36.37,53.65,29.41Z"/><path d="M169.61,135.54c.13-2.41.55-4.96-3.93-4.11-1.9.36-4.59.2-5.47-3.35-.42-1.69-3.83-2.63-5.24-3.51,3.6-3.43,7.56-7.21,11.52-10.98l-1.05-1.26c4.71-.14,9.85.87,12.55-4.59.19-.39,1.44-.34,2.19-.35,2.34-.04,4.68-.02,7.27-.02,1.23,5.15,4.05,8.53,10.3,9.1,5.11.47,8.11,5.25,8.23,10.55.34,15.26-.64,16.29-16.47,15.75-4.78-.16-10.59.2-14.03-5.26C174.7,136.27,171.98,136.27,169.61,135.54Z"/><path d="M413.34,107.22c-2.5,4.07-5.01,8.14-8.02,13.04-2.35.76-4.19-1.13-6.15-3.79-2.44-3.3-5.08-6.74-9.9-6.76a50.216,50.216,0,0,1-7.47-.11c-1.39-.22-2.64-1.48-3.9-2.36-.49-.34-.74-1.18-1.23-1.32-3.7-1.06-7.58-1.67-11.1-3.12a6.4,6.4,0,0,1-3.42-4.49c-.3-4.68-2.73-5.1-5.37-4.35-1.35-2.71-2.67-5.1-3.75-7.59-1.03-2.38-1.79-4.88-2.89-7.92,2.58.15,3.64.21,5.04.3V70.16h7.13c2.68,2.07,4.67,3.38,6.37,4.99,2.27,2.14,4.29,4.52,6.46,6.77,2.8,2.9,5.64,5.77,8.47,8.63a28.253,28.253,0,0,0,3.27,2.89q4.44,3.255,8.89,6.49a2.465,2.465,0,0,0,.91.39c2.84.62,7.54.45,8.17,1.97,1.55,3.74,4.17,3.46,7.07,3.64C412.4,106.36,412.87,106.79,413.34,107.22Z"/><path d="M335.2,342.13c2.81-.54,5.04-.96,7.55-1.44.26,1.49.51,2.91.79,4.5,2.99.6,6.07.99,9,1.89a29.149,29.149,0,0,1,5.5,2.93A20.189,20.189,0,0,0,361.3,352c9.48,3.15,9.8,3.54,9.87,13.41.01,1.15,0,2.3.95,2.85,1.42,1.35,4.03,2.69,4.03,4.04a24.991,24.991,0,0,1-2.16,9.23c-.68,1.64-2.6,2.78-3.62,4.58-7.96,2.28-14.11-.54-19.28-7.5-2.76-3.71-6.44-6.41-6.89-11.65-.15-1.78-2.46-3.75-4.24-4.95-5.87-3.98-4.66-9.92-4.77-15.55C335.18,345.13,335.2,343.81,335.2,342.13Z"/><path d="M189.12,406.28c-2.33.78-5.01,1.55-7.58,2.59-1.84.75-3.47,1.98-5.28,2.82s-2.96,1.76-5.3-.56c-3.83-3.78-8.96-6.27-13.7-9.04-.8-.47-2.39.41-2.57.45-5.46-7.2-10.6-13.99-15.74-20.79-.32.16-.63.32-.95.49,0-1.98-.49-4.13.14-5.88.63-1.73,2.33-4.26,3.67-4.33,6.17-.33,12.61-2,18.39,1.79.71.46,1.14,1.32,1.79,1.9,1.16,1.03,2.39,1.99,3.59,2.98a15.031,15.031,0,0,1,1.61,1.36c1.27,1.4,2.45,2.88,3.72,4.28.51.56,1.62.95,1.67,1.5.5,5.34,5.01,7.41,8.22,10.61C183.49,399.15,185.77,402.29,189.12,406.28Z"/><path d="M70.12,326.81c2.53,2.43,5.05,4.86,8.49,8.17-12.31,0-23.29.53-34.16-.31-3.4-.26-6.89-3.84-9.58-6.64-.98-1.01.12-4.19.52-6.32a62.165,62.165,0,0,1,1.99-7.96c1.61-4.89,4.88-7.01,9.67-5.29a25.757,25.757,0,0,1,12.64,9.74c2.51,3.56,6.65,5.98,10.06,8.91C69.87,327.02,69.99,326.92,70.12,326.81Z"/><path d="M565.52,208.65c.17,1.44.34,2.88.51,4.25,2.97.64,7.01.32,8.11,1.96,2.9,4.36,7.69,4.97,11.36,7.6,1.08.77,1.19,2.88,1.77,4.42-4.3,1.12-7.07,7.3-5.16,12.42,2.48,6.63-.2,11.41-4.58,15.73-3.36,3.31-11.62.96-13.45-3.54a4.986,4.986,0,0,0-2.04-2.03c-5.04-3.1-5.12-3.17-5.95-8.54-7.64-2.29-7.64-2.29-7.65-10.61,0-6.83.06-13.66-.04-20.49a45.638,45.638,0,0,0-.84-5.84C554.72,200.01,560.04,204.33,565.52,208.65Z"/></g><g transform="translate(621.02 -20.64)"><path d="M0,408l5.2-.63c-.14.38-.28.77-.43,1.15,1.94.83,3.89,2.36,5.83,2.35,4.85-.04,8.37,2.01,11.97,5A31.844,31.844,0,0,0,41.35,423c.82.05,2.14-.1,2.38.33,3.18,5.49,10.14,5.68,14.02,10.28,4.54,5.38,11.5,6.98,17.41,10.21.96.52,1.25,2.28,1.66,3.1-7.92,3.93-16.33,5.29-21.82,12.1H54c-5.29-5.09-11.77-6.66-18.92-6.85-3.67-.1-8.16.96-10.06-4.05a2.241,2.241,0,0,0-1.62-1.01c-3.59-.33-3.53-2.24-2.93-5.18.43-2.08.16-6.09-.71-6.37-4.96-1.58-4.49-6.36-6.57-9.61-3.2-.6-7.61.17-7.16-5.23.4-4.68-2.36-5.59-6.05-5.71C0,412.66,0,410.33,0,408Z"/><path d="M478.11,459a30.942,30.942,0,0,1-3.45-1.29c-2.2-1.11-4.3-2.39-6.49-3.5-1.94-.98-3.94-1.83-6.39-2.96-.03-2.22-.17-4.96-4.75-3.75-1.18.31-3.04-1.94-4.57-3.03-2.06-1.47-4.1-2.97-5.44-3.95,3.43-3.3,7.26-6.97,11.09-10.65-.32-.54-.65-1.07-.97-1.61,1.94,0,3.99.4,5.79-.11,2-.56,3.72-2.06,5.66-2.94a18.3,18.3,0,0,1,4.37-1.28c2.03-.35,4.1-.49,6.34-.73,1.21,5.25,4,8.68,10.12,9.24,4.99.46,8.62,5.31,8.45,10.3-.16,4.85-.65,9.69-.94,13.79-2.7,1.14-4.25,1.8-5.81,2.47Z"/><path d="M0,415c3.69.12,6.44,1.04,6.05,5.71-.46,5.4,3.96,4.63,7.16,5.23,2.08,3.26,1.61,8.04,6.57,9.61.87.28,1.13,4.28.71,6.37-.6,2.94-.66,4.85,2.93,5.18a2.183,2.183,0,0,1,1.62,1.01c1.9,5.01,6.39,3.95,10.06,4.05,7.15.19,13.62,1.76,18.92,6.85H.01Q-.005,436.99,0,415Z" fill="#fff"/><path d="M285.07,459c-1.31-.92-2.65-2.65-3.91-2.6-3.81.16-5.35-1.61-5.96-5.01-.81-4.56-.96-4.61-4.7-4.08-1.89-3.47-3.43-6.6-5.26-9.55-2.05-3.31-1.04-5.65,3.14-6.02.17-2.69.35-5.44.54-8.45h6.77c2.58,2.12,4.44,3.53,6.17,5.09,2.21,2.02,4.26,4.21,6.47,6.23,3.3,3.02,6.79,5.83,9.94,8.99.95.95,1.02,2.78,2.27,3.18,2.85,2.1,5.49,4.59,8.6,6.2,2.79,1.45,6.09,1.93,9.78,3.02.03.5.1,1.75.17,3Z"/><path d="M0,141.98c2.08-3.82,3.85-8.49,9.5-6.88a23.748,23.748,0,0,1,8.64,4.64c4.13,3.52,7.14,9.41,11.76,11.02,4.52,1.57,5.1,6.97,9.83,7.32.65.05,1.17,1.72,2.38,3.63h-15c-3.67,0-7.37-.34-10.99.06-6.41.71-11.87-.7-16.1-5.79Q-.01,148.99,0,141.98Z"/><path d="M562.74,338.23v26.18c-3.22,1.48-5.58,3.47-7.94,3.47-4.42-.01-6.6-3.23-7.63-7.46-.47-1.93-1.84-3.65-2.81-5.46-.42.13-.84.27-1.27.4v-8.72c-3.41-.91-8.24-.82-9.24-2.74-2.14-4.08-5.07-3.84-10.36-3.51,7.11-6.4-.29-15.69,7.42-20.94.27-7.76,4.85-5.63,9.67-4.71,4.18.8,8.62.14,12.95.29,1.59.06,3.75.05,4.66,1.01,3.66,3.9,7.73,4.3,12.65,3.03,4.78-1.23,8.57,1.57,12.4,4.03,1.88,1.21,4.18,1.77,6.98,2.9-6.95,4.21-12.33,9.56-20.39,9.03a4.161,4.161,0,0,0-2.49.99,35.25,35.25,0,0,0-3.02,2.97C563.79,338.75,563.26,338.49,562.74,338.23Z"/><path d="M534.31,96c6.72-6.17-.02-15.39,7.36-20.71.35-7.97,5.2-5.22,9.79-4.5,4.23.66,8.67-.15,12.95.32,2.35.26,4.53,1.91,6.84,2.78,2.01.77,4.48,2.38,6.09,1.8,6.11-2.19,11.14.03,16.22,2.77,2.22,1.2,4.43,2.4,6.96,3.77-6.79,4.07-12.35,9.03-20.35,8.92-1.8-.03-3.63,2.23-6.76,3v26.36c-3.33,1.43-5.7,3.29-8.05,3.27-4.83-.03-6.67-3.66-7.5-8.04-.24-1.29-1.58-2.36-2.32-3.58a8.437,8.437,0,0,1-1.53-3.11,57.775,57.775,0,0,1-.07-6.39c-3.81-1.02-8.85-1-9.68-2.87C542.36,95.59,539.42,96.35,534.31,96Z"/><path d="M249.37,47.03h-7.92c5.3-6.45,2.41-13.7,5.93-20.79,3.65-7.34,6.77-5.75,11.97-4.64,3.03.64,6.31.14,9.47.12,3.78-.02,7.39-.22,10.07,3.6.79,1.13,3.98,1.33,5.78.85,5.7-1.5,10.61.12,15.44,2.82,2.22,1.24,4.46,2.43,6.94,3.78-3.32,2.26-6.27,4.26-9.21,6.26.17.27.34.53.51.8-3.86.64-7.73,1.2-11.58,1.93-4.75.9-7.69,7.29-6.87,12.27.75,4.56.17,9.34.09,14.03a17.124,17.124,0,0,1-.48,3.04c-2.14,1.19-4.17,3.24-6.06,3.13-2.53-.15-5.71-1.36-7.26-3.24-2.09-2.54-.53-7.28-5.1-9-.77-.29-.56-3.72-.45-5.69.16-2.91-.72-4.36-3.92-4.11C253.04,52.47,249.82,51.66,249.37,47.03Z"/><path d="M421.32,285.72c-1.52-5.3-4.22-9.15-9.55-10.9-1.01-.33-1.37-2.64-.49-3.41,1.66-2.53,5.3-5.9,4.64-7.45-2.71-6.39,3-7.75,5.56-8.08,4.23-.55,4.57-2.65,4.67-6.35,1.74.5,3.1.77,4.37,1.28,5.14,2.07,11.93-.83,15.82,5.33.4.64,2.51.2,2.68,1.35,4.62,5.96,9.23,11.93,13.95,18.01,7.24.95,15.06,1.98,22.88,3,0,.61.01,1.23.01,1.84-3.91,2.2-6.07,7.76-12.3,5.63-.85-.29-2.52.84-3.39,1.72-4.02,4.09-8.74,5.02-14.13,3.65a12.656,12.656,0,0,0-2.95-.34c-4.09-.04-7.38-1.46-11.1-3.52-3.98-2.21-9.69-1.36-14.65-1.74C425.37,285.6,423.39,285.72,421.32,285.72Z"/><path d="M72.83,215.25c.37-7.77.81-15.54,1-23.32.02-.89-1.24-2.14-2.2-2.66-2.56-1.37-3.81-3.04-2.06-6.49,4.19,2.43,8.32,4.95,12.57,7.24,1.49.8,3.61.6,4.88,1.59,3.39,2.64,6.27,5.97,9.76,8.46,2.02,1.44,5.21,3.02,7.16,2.37,3.43-1.13,5.24-.1,7.66,1.91,8.8,7.3,10.1,16.69,8.21,27.49-1.33.26-2.69.53-3.91.77-.28.53-.55.81-.56,1.1-.27,5.68-3.21,9.01-8.65,10.67-1.78.54-3.14,2.44-4.69,3.72a47.945,47.945,0,0,0-3.57-4.87c-.56-.6-2.48-.38-2.62-.87-.83-2.78-.8-5.92-2.05-8.44-1.06-2.14-3.46-3.61-5.23-5.54q-6.57-6.9-13.13-13.81C74.54,214.8,73.69,215.03,72.83,215.25Z"/><path d="M220.81,285.92c-3.86-.21-7.18-1.04-7.07-7.01.08-4.47-4.09-3.99-7.35-3.4-2.22-6.15,2.05-7.29,6.45-8.33-.12.45-.24.89-.36,1.34,2.09.82,4.2,2.35,6.28,2.33,4.72-.06,8.12,2.1,11.57,4.87a32.709,32.709,0,0,0,18.81,7.25c.66.04,1.55-.2,1.96.14,5.48,4.48,10.89,9.04,16.32,13.58.24.2.47.7.65.67,5.86-.94,8.75,4.73,13.59,6.14,1.34.39,2.33,1.96,3.53,3.03-4.83,2.27-8.5,3.9-12.08,5.71-3.66,1.85-7.22,3.89-11.46,6.19-7.14-7.1-17.31-5.87-27.11-6.94-.59-1.12-1.14-3.54-2.12-3.74-5.24-1.03-4.38-4.4-3.85-8.05.31-2.15.28-3.85-2.79-5.25C223.44,293.4,222.55,289.14,220.81,285.92Z"/><path d="M289.7,170.27c.17,1.44.34,2.88.51,4.25,2.97.64,7.01.32,8.11,1.96,2.9,4.36,7.69,4.97,11.36,7.6,1.08.77,1.19,2.88,1.77,4.42-4.3,1.12-7.07,7.3-5.16,12.42,2.48,6.63-.2,11.41-4.58,15.73-3.36,3.31-11.62.96-13.45-3.54a4.985,4.985,0,0,0-2.04-2.03c-5.04-3.1-5.12-3.17-5.95-8.54-7.64-2.29-7.64-2.29-7.65-10.61,0-6.83.06-13.66-.04-20.49a45.643,45.643,0,0,0-.84-5.84C278.9,161.62,284.22,165.94,289.7,170.27Z"/><path d="M491.67,185.06a51.927,51.927,0,0,1-12.78-9.36c-.47-.5-1.48-.55-2.26-.71a18.363,18.363,0,0,1-14.69-17.62c0-3.33-.19-6.67.06-9.98.23-3.06.94-6.09,1.56-9.89,5.21.52,10.22.98,15.22,1.59.59.07,1.03,1.01,1.62,1.45,1.13.85,2.26,2.23,3.48,2.32,3.67.27,6.71.53,8.82,4.57.97,1.86,4.68,2.29,7.15,3.37.59.26,1.18.52,1.05.46a91.38,91.38,0,0,0-1.66,9.25,52.92,52.92,0,0,0,.02,10.97C500.12,178.05,497.68,182.45,491.67,185.06Z"/><path d="M53.65,29.41c6.02.61,12.79-.68,15.64,2.08,3.92,3.8,8.39,2.75,12.17,4.79.4.21,1.08.49,1.09.74.06,4.45,3.31,4.47,6.46,4.92a7.348,7.348,0,0,1,2.68,1.35,71.619,71.619,0,0,0-1.62,8.38,63.793,63.793,0,0,0,.01,11.48c.75,6.61-1.32,11.4-8.11,14.12-4.2-2.89-8.75-6.02-14.93-10.27-7.61-.94-14.38-8.4-14.24-18.23C52.86,42.57,53.32,36.37,53.65,29.41Z"/><path d="M169.61,135.54c.13-2.41.55-4.96-3.93-4.11-1.9.36-4.59.2-5.47-3.35-.42-1.69-3.83-2.63-5.24-3.51,3.6-3.43,7.56-7.21,11.52-10.98l-1.05-1.26c4.71-.14,9.85.87,12.55-4.59.19-.39,1.44-.34,2.19-.35,2.34-.04,4.68-.02,7.27-.02,1.23,5.15,4.05,8.53,10.3,9.1,5.11.47,8.11,5.25,8.23,10.55.34,15.26-.64,16.29-16.47,15.75-4.78-.16-10.59.2-14.03-5.26C174.7,136.27,171.98,136.27,169.61,135.54Z"/><path d="M413.34,107.22c-2.5,4.07-5.01,8.14-8.02,13.04-2.35.76-4.19-1.13-6.15-3.79-2.44-3.3-5.08-6.74-9.9-6.76a50.216,50.216,0,0,1-7.47-.11c-1.39-.22-2.64-1.48-3.9-2.36-.49-.34-.74-1.18-1.23-1.32-3.7-1.06-7.58-1.67-11.1-3.12a6.4,6.4,0,0,1-3.42-4.49c-.3-4.68-2.73-5.1-5.37-4.35-1.35-2.71-2.67-5.1-3.75-7.59-1.03-2.38-1.79-4.88-2.89-7.92,2.58.15,3.64.21,5.04.3V70.16h7.13c2.68,2.07,4.67,3.38,6.37,4.99,2.27,2.14,4.29,4.52,6.46,6.77,2.8,2.9,5.64,5.77,8.47,8.63a28.253,28.253,0,0,0,3.27,2.89q4.44,3.255,8.89,6.49a2.465,2.465,0,0,0,.91.39c2.84.62,7.54.45,8.17,1.97,1.55,3.74,4.17,3.46,7.07,3.64C412.4,106.36,412.87,106.79,413.34,107.22Z"/><path d="M335.2,342.13c2.81-.54,5.04-.96,7.55-1.44.26,1.49.51,2.91.79,4.5,2.99.6,6.07.99,9,1.89a29.149,29.149,0,0,1,5.5,2.93A20.189,20.189,0,0,0,361.3,352c9.48,3.15,9.8,3.54,9.87,13.41.01,1.15,0,2.3.95,2.85,1.42,1.35,4.03,2.69,4.03,4.04a24.991,24.991,0,0,1-2.16,9.23c-.68,1.64-2.6,2.78-3.62,4.58-7.96,2.28-14.11-.54-19.28-7.5-2.76-3.71-6.44-6.41-6.89-11.65-.15-1.78-2.46-3.75-4.24-4.95-5.87-3.98-4.66-9.92-4.77-15.55C335.18,345.13,335.2,343.81,335.2,342.13Z"/><path d="M189.12,406.28c-2.33.78-5.01,1.55-7.58,2.59-1.84.75-3.47,1.98-5.28,2.82s-2.96,1.76-5.3-.56c-3.83-3.78-8.96-6.27-13.7-9.04-.8-.47-2.39.41-2.57.45-5.46-7.2-10.6-13.99-15.74-20.79-.32.16-.63.32-.95.49,0-1.98-.49-4.13.14-5.88.63-1.73,2.33-4.26,3.67-4.33,6.17-.33,12.61-2,18.39,1.79.71.46,1.14,1.32,1.79,1.9,1.16,1.03,2.39,1.99,3.59,2.98a15.031,15.031,0,0,1,1.61,1.36c1.27,1.4,2.45,2.88,3.72,4.28.51.56,1.62.95,1.67,1.5.5,5.34,5.01,7.41,8.22,10.61C183.49,399.15,185.77,402.29,189.12,406.28Z"/><path d="M70.12,326.81c2.53,2.43,5.05,4.86,8.49,8.17-12.31,0-23.29.53-34.16-.31-3.4-.26-6.89-3.84-9.58-6.64-.98-1.01.12-4.19.52-6.32a62.165,62.165,0,0,1,1.99-7.96c1.61-4.89,4.88-7.01,9.67-5.29a25.757,25.757,0,0,1,12.64,9.74c2.51,3.56,6.65,5.98,10.06,8.91C69.87,327.02,69.99,326.92,70.12,326.81Z"/><path d="M565.52,208.65c.17,1.44.34,2.88.51,4.25,2.97.64,7.01.32,8.11,1.96,2.9,4.36,7.69,4.97,11.36,7.6,1.08.77,1.19,2.88,1.77,4.42-4.3,1.12-7.07,7.3-5.16,12.42,2.48,6.63-.2,11.41-4.58,15.73-3.36,3.31-11.62.96-13.45-3.54a4.986,4.986,0,0,0-2.04-2.03c-5.04-3.1-5.12-3.17-5.95-8.54-7.64-2.29-7.64-2.29-7.65-10.61,0-6.83.06-13.66-.04-20.49a45.638,45.638,0,0,0-.84-5.84C554.72,200.01,560.04,204.33,565.52,208.65Z"/></g><g transform="translate(1242.02 -20.64)"><path d="M0,408l5.2-.63c-.14.38-.28.77-.43,1.15,1.94.83,3.89,2.36,5.83,2.35,4.85-.04,8.37,2.01,11.97,5A31.844,31.844,0,0,0,41.35,423c.82.05,2.14-.1,2.38.33,3.18,5.49,10.14,5.68,14.02,10.28,4.54,5.38,11.5,6.98,17.41,10.21.96.52,1.25,2.28,1.66,3.1-7.92,3.93-16.33,5.29-21.82,12.1H54c-5.29-5.09-11.77-6.66-18.92-6.85-3.67-.1-8.16.96-10.06-4.05a2.241,2.241,0,0,0-1.62-1.01c-3.59-.33-3.53-2.24-2.93-5.18.43-2.08.16-6.09-.71-6.37-4.96-1.58-4.49-6.36-6.57-9.61-3.2-.6-7.61.17-7.16-5.23.4-4.68-2.36-5.59-6.05-5.71C0,412.66,0,410.33,0,408Z"/><path d="M478.11,459a30.942,30.942,0,0,1-3.45-1.29c-2.2-1.11-4.3-2.39-6.49-3.5-1.94-.98-3.94-1.83-6.39-2.96-.03-2.22-.17-4.96-4.75-3.75-1.18.31-3.04-1.94-4.57-3.03-2.06-1.47-4.1-2.97-5.44-3.95,3.43-3.3,7.26-6.97,11.09-10.65-.32-.54-.65-1.07-.97-1.61,1.94,0,3.99.4,5.79-.11,2-.56,3.72-2.06,5.66-2.94a18.3,18.3,0,0,1,4.37-1.28c2.03-.35,4.1-.49,6.34-.73,1.21,5.25,4,8.68,10.12,9.24,4.99.46,8.62,5.31,8.45,10.3-.16,4.85-.65,9.69-.94,13.79-2.7,1.14-4.25,1.8-5.81,2.47Z"/><path d="M0,415c3.69.12,6.44,1.04,6.05,5.71-.46,5.4,3.96,4.63,7.16,5.23,2.08,3.26,1.61,8.04,6.57,9.61.87.28,1.13,4.28.71,6.37-.6,2.94-.66,4.85,2.93,5.18a2.183,2.183,0,0,1,1.62,1.01c1.9,5.01,6.39,3.95,10.06,4.05,7.15.19,13.62,1.76,18.92,6.85H.01Q-.005,436.99,0,415Z" fill="#fff"/><path d="M285.07,459c-1.31-.92-2.65-2.65-3.91-2.6-3.81.16-5.35-1.61-5.96-5.01-.81-4.56-.96-4.61-4.7-4.08-1.89-3.47-3.43-6.6-5.26-9.55-2.05-3.31-1.04-5.65,3.14-6.02.17-2.69.35-5.44.54-8.45h6.77c2.58,2.12,4.44,3.53,6.17,5.09,2.21,2.02,4.26,4.21,6.47,6.23,3.3,3.02,6.79,5.83,9.94,8.99.95.95,1.02,2.78,2.27,3.18,2.85,2.1,5.49,4.59,8.6,6.2,2.79,1.45,6.09,1.93,9.78,3.02.03.5.1,1.75.17,3Z"/><path d="M0,141.98c2.08-3.82,3.85-8.49,9.5-6.88a23.748,23.748,0,0,1,8.64,4.64c4.13,3.52,7.14,9.41,11.76,11.02,4.52,1.57,5.1,6.97,9.83,7.32.65.05,1.17,1.72,2.38,3.63h-15c-3.67,0-7.37-.34-10.99.06-6.41.71-11.87-.7-16.1-5.79Q-.01,148.99,0,141.98Z"/><path d="M562.74,338.23v26.18c-3.22,1.48-5.58,3.47-7.94,3.47-4.42-.01-6.6-3.23-7.63-7.46-.47-1.93-1.84-3.65-2.81-5.46-.42.13-.84.27-1.27.4v-8.72c-3.41-.91-8.24-.82-9.24-2.74-2.14-4.08-5.07-3.84-10.36-3.51,7.11-6.4-.29-15.69,7.42-20.94.27-7.76,4.85-5.63,9.67-4.71,4.18.8,8.62.14,12.95.29,1.59.06,3.75.05,4.66,1.01,3.66,3.9,7.73,4.3,12.65,3.03,4.78-1.23,8.57,1.57,12.4,4.03,1.88,1.21,4.18,1.77,6.98,2.9-6.95,4.21-12.33,9.56-20.39,9.03a4.161,4.161,0,0,0-2.49.99,35.25,35.25,0,0,0-3.02,2.97C563.79,338.75,563.26,338.49,562.74,338.23Z"/><path d="M534.31,96c6.72-6.17-.02-15.39,7.36-20.71.35-7.97,5.2-5.22,9.79-4.5,4.23.66,8.67-.15,12.95.32,2.35.26,4.53,1.91,6.84,2.78,2.01.77,4.48,2.38,6.09,1.8,6.11-2.19,11.14.03,16.22,2.77,2.22,1.2,4.43,2.4,6.96,3.77-6.79,4.07-12.35,9.03-20.35,8.92-1.8-.03-3.63,2.23-6.76,3v26.36c-3.33,1.43-5.7,3.29-8.05,3.27-4.83-.03-6.67-3.66-7.5-8.04-.24-1.29-1.58-2.36-2.32-3.58a8.437,8.437,0,0,1-1.53-3.11,57.775,57.775,0,0,1-.07-6.39c-3.81-1.02-8.85-1-9.68-2.87C542.36,95.59,539.42,96.35,534.31,96Z"/><path d="M249.37,47.03h-7.92c5.3-6.45,2.41-13.7,5.93-20.79,3.65-7.34,6.77-5.75,11.97-4.64,3.03.64,6.31.14,9.47.12,3.78-.02,7.39-.22,10.07,3.6.79,1.13,3.98,1.33,5.78.85,5.7-1.5,10.61.12,15.44,2.82,2.22,1.24,4.46,2.43,6.94,3.78-3.32,2.26-6.27,4.26-9.21,6.26.17.27.34.53.51.8-3.86.64-7.73,1.2-11.58,1.93-4.75.9-7.69,7.29-6.87,12.27.75,4.56.17,9.34.09,14.03a17.124,17.124,0,0,1-.48,3.04c-2.14,1.19-4.17,3.24-6.06,3.13-2.53-.15-5.71-1.36-7.26-3.24-2.09-2.54-.53-7.28-5.1-9-.77-.29-.56-3.72-.45-5.69.16-2.91-.72-4.36-3.92-4.11C253.04,52.47,249.82,51.66,249.37,47.03Z"/><path d="M421.32,285.72c-1.52-5.3-4.22-9.15-9.55-10.9-1.01-.33-1.37-2.64-.49-3.41,1.66-2.53,5.3-5.9,4.64-7.45-2.71-6.39,3-7.75,5.56-8.08,4.23-.55,4.57-2.65,4.67-6.35,1.74.5,3.1.77,4.37,1.28,5.14,2.07,11.93-.83,15.82,5.33.4.64,2.51.2,2.68,1.35,4.62,5.96,9.23,11.93,13.95,18.01,7.24.95,15.06,1.98,22.88,3,0,.61.01,1.23.01,1.84-3.91,2.2-6.07,7.76-12.3,5.63-.85-.29-2.52.84-3.39,1.72-4.02,4.09-8.74,5.02-14.13,3.65a12.656,12.656,0,0,0-2.95-.34c-4.09-.04-7.38-1.46-11.1-3.52-3.98-2.21-9.69-1.36-14.65-1.74C425.37,285.6,423.39,285.72,421.32,285.72Z"/><path d="M72.83,215.25c.37-7.77.81-15.54,1-23.32.02-.89-1.24-2.14-2.2-2.66-2.56-1.37-3.81-3.04-2.06-6.49,4.19,2.43,8.32,4.95,12.57,7.24,1.49.8,3.61.6,4.88,1.59,3.39,2.64,6.27,5.97,9.76,8.46,2.02,1.44,5.21,3.02,7.16,2.37,3.43-1.13,5.24-.1,7.66,1.91,8.8,7.3,10.1,16.69,8.21,27.49-1.33.26-2.69.53-3.91.77-.28.53-.55.81-.56,1.1-.27,5.68-3.21,9.01-8.65,10.67-1.78.54-3.14,2.44-4.69,3.72a47.945,47.945,0,0,0-3.57-4.87c-.56-.6-2.48-.38-2.62-.87-.83-2.78-.8-5.92-2.05-8.44-1.06-2.14-3.46-3.61-5.23-5.54q-6.57-6.9-13.13-13.81C74.54,214.8,73.69,215.03,72.83,215.25Z"/><path d="M220.81,285.92c-3.86-.21-7.18-1.04-7.07-7.01.08-4.47-4.09-3.99-7.35-3.4-2.22-6.15,2.05-7.29,6.45-8.33-.12.45-.24.89-.36,1.34,2.09.82,4.2,2.35,6.28,2.33,4.72-.06,8.12,2.1,11.57,4.87a32.709,32.709,0,0,0,18.81,7.25c.66.04,1.55-.2,1.96.14,5.48,4.48,10.89,9.04,16.32,13.58.24.2.47.7.65.67,5.86-.94,8.75,4.73,13.59,6.14,1.34.39,2.33,1.96,3.53,3.03-4.83,2.27-8.5,3.9-12.08,5.71-3.66,1.85-7.22,3.89-11.46,6.19-7.14-7.1-17.31-5.87-27.11-6.94-.59-1.12-1.14-3.54-2.12-3.74-5.24-1.03-4.38-4.4-3.85-8.05.31-2.15.28-3.85-2.79-5.25C223.44,293.4,222.55,289.14,220.81,285.92Z"/><path d="M289.7,170.27c.17,1.44.34,2.88.51,4.25,2.97.64,7.01.32,8.11,1.96,2.9,4.36,7.69,4.97,11.36,7.6,1.08.77,1.19,2.88,1.77,4.42-4.3,1.12-7.07,7.3-5.16,12.42,2.48,6.63-.2,11.41-4.58,15.73-3.36,3.31-11.62.96-13.45-3.54a4.985,4.985,0,0,0-2.04-2.03c-5.04-3.1-5.12-3.17-5.95-8.54-7.64-2.29-7.64-2.29-7.65-10.61,0-6.83.06-13.66-.04-20.49a45.643,45.643,0,0,0-.84-5.84C278.9,161.62,284.22,165.94,289.7,170.27Z"/><path d="M491.67,185.06a51.927,51.927,0,0,1-12.78-9.36c-.47-.5-1.48-.55-2.26-.71a18.363,18.363,0,0,1-14.69-17.62c0-3.33-.19-6.67.06-9.98.23-3.06.94-6.09,1.56-9.89,5.21.52,10.22.98,15.22,1.59.59.07,1.03,1.01,1.62,1.45,1.13.85,2.26,2.23,3.48,2.32,3.67.27,6.71.53,8.82,4.57.97,1.86,4.68,2.29,7.15,3.37.59.26,1.18.52,1.05.46a91.38,91.38,0,0,0-1.66,9.25,52.92,52.92,0,0,0,.02,10.97C500.12,178.05,497.68,182.45,491.67,185.06Z"/><path d="M53.65,29.41c6.02.61,12.79-.68,15.64,2.08,3.92,3.8,8.39,2.75,12.17,4.79.4.21,1.08.49,1.09.74.06,4.45,3.31,4.47,6.46,4.92a7.348,7.348,0,0,1,2.68,1.35,71.619,71.619,0,0,0-1.62,8.38,63.793,63.793,0,0,0,.01,11.48c.75,6.61-1.32,11.4-8.11,14.12-4.2-2.89-8.75-6.02-14.93-10.27-7.61-.94-14.38-8.4-14.24-18.23C52.86,42.57,53.32,36.37,53.65,29.41Z"/><path d="M169.61,135.54c.13-2.41.55-4.96-3.93-4.11-1.9.36-4.59.2-5.47-3.35-.42-1.69-3.83-2.63-5.24-3.51,3.6-3.43,7.56-7.21,11.52-10.98l-1.05-1.26c4.71-.14,9.85.87,12.55-4.59.19-.39,1.44-.34,2.19-.35,2.34-.04,4.68-.02,7.27-.02,1.23,5.15,4.05,8.53,10.3,9.1,5.11.47,8.11,5.25,8.23,10.55.34,15.26-.64,16.29-16.47,15.75-4.78-.16-10.59.2-14.03-5.26C174.7,136.27,171.98,136.27,169.61,135.54Z"/><path d="M413.34,107.22c-2.5,4.07-5.01,8.14-8.02,13.04-2.35.76-4.19-1.13-6.15-3.79-2.44-3.3-5.08-6.74-9.9-6.76a50.216,50.216,0,0,1-7.47-.11c-1.39-.22-2.64-1.48-3.9-2.36-.49-.34-.74-1.18-1.23-1.32-3.7-1.06-7.58-1.67-11.1-3.12a6.4,6.4,0,0,1-3.42-4.49c-.3-4.68-2.73-5.1-5.37-4.35-1.35-2.71-2.67-5.1-3.75-7.59-1.03-2.38-1.79-4.88-2.89-7.92,2.58.15,3.64.21,5.04.3V70.16h7.13c2.68,2.07,4.67,3.38,6.37,4.99,2.27,2.14,4.29,4.52,6.46,6.77,2.8,2.9,5.64,5.77,8.47,8.63a28.253,28.253,0,0,0,3.27,2.89q4.44,3.255,8.89,6.49a2.465,2.465,0,0,0,.91.39c2.84.62,7.54.45,8.17,1.97,1.55,3.74,4.17,3.46,7.07,3.64C412.4,106.36,412.87,106.79,413.34,107.22Z"/><path d="M335.2,342.13c2.81-.54,5.04-.96,7.55-1.44.26,1.49.51,2.91.79,4.5,2.99.6,6.07.99,9,1.89a29.149,29.149,0,0,1,5.5,2.93A20.189,20.189,0,0,0,361.3,352c9.48,3.15,9.8,3.54,9.87,13.41.01,1.15,0,2.3.95,2.85,1.42,1.35,4.03,2.69,4.03,4.04a24.991,24.991,0,0,1-2.16,9.23c-.68,1.64-2.6,2.78-3.62,4.58-7.96,2.28-14.11-.54-19.28-7.5-2.76-3.71-6.44-6.41-6.89-11.65-.15-1.78-2.46-3.75-4.24-4.95-5.87-3.98-4.66-9.92-4.77-15.55C335.18,345.13,335.2,343.81,335.2,342.13Z"/><path d="M189.12,406.28c-2.33.78-5.01,1.55-7.58,2.59-1.84.75-3.47,1.98-5.28,2.82s-2.96,1.76-5.3-.56c-3.83-3.78-8.96-6.27-13.7-9.04-.8-.47-2.39.41-2.57.45-5.46-7.2-10.6-13.99-15.74-20.79-.32.16-.63.32-.95.49,0-1.98-.49-4.13.14-5.88.63-1.73,2.33-4.26,3.67-4.33,6.17-.33,12.61-2,18.39,1.79.71.46,1.14,1.32,1.79,1.9,1.16,1.03,2.39,1.99,3.59,2.98a15.031,15.031,0,0,1,1.61,1.36c1.27,1.4,2.45,2.88,3.72,4.28.51.56,1.62.95,1.67,1.5.5,5.34,5.01,7.41,8.22,10.61C183.49,399.15,185.77,402.29,189.12,406.28Z"/><path d="M70.12,326.81c2.53,2.43,5.05,4.86,8.49,8.17-12.31,0-23.29.53-34.16-.31-3.4-.26-6.89-3.84-9.58-6.64-.98-1.01.12-4.19.52-6.32a62.165,62.165,0,0,1,1.99-7.96c1.61-4.89,4.88-7.01,9.67-5.29a25.757,25.757,0,0,1,12.64,9.74c2.51,3.56,6.65,5.98,10.06,8.91C69.87,327.02,69.99,326.92,70.12,326.81Z"/><path d="M565.52,208.65c.17,1.44.34,2.88.51,4.25,2.97.64,7.01.32,8.11,1.96,2.9,4.36,7.69,4.97,11.36,7.6,1.08.77,1.19,2.88,1.77,4.42-4.3,1.12-7.07,7.3-5.16,12.42,2.48,6.63-.2,11.41-4.58,15.73-3.36,3.31-11.62.96-13.45-3.54a4.986,4.986,0,0,0-2.04-2.03c-5.04-3.1-5.12-3.17-5.95-8.54-7.64-2.29-7.64-2.29-7.65-10.61,0-6.83.06-13.66-.04-20.49a45.638,45.638,0,0,0-.84-5.84C554.72,200.01,560.04,204.33,565.52,208.65Z"/></g><g transform="translate(1863.02 -20.64)"><path d="M0,408l5.2-.63c-.14.38-.28.77-.43,1.15,1.94.83,3.89,2.36,5.83,2.35,4.85-.04,8.37,2.01,11.97,5A31.844,31.844,0,0,0,41.35,423c.82.05,2.14-.1,2.38.33,3.18,5.49,10.14,5.68,14.02,10.28,4.54,5.38,11.5,6.98,17.41,10.21.96.52,1.25,2.28,1.66,3.1-7.92,3.93-16.33,5.29-21.82,12.1H54c-5.29-5.09-11.77-6.66-18.92-6.85-3.67-.1-8.16.96-10.06-4.05a2.241,2.241,0,0,0-1.62-1.01c-3.59-.33-3.53-2.24-2.93-5.18.43-2.08.16-6.09-.71-6.37-4.96-1.58-4.49-6.36-6.57-9.61-3.2-.6-7.61.17-7.16-5.23.4-4.68-2.36-5.59-6.05-5.71C0,412.66,0,410.33,0,408Z"/><path d="M478.11,459a30.942,30.942,0,0,1-3.45-1.29c-2.2-1.11-4.3-2.39-6.49-3.5-1.94-.98-3.94-1.83-6.39-2.96-.03-2.22-.17-4.96-4.75-3.75-1.18.31-3.04-1.94-4.57-3.03-2.06-1.47-4.1-2.97-5.44-3.95,3.43-3.3,7.26-6.97,11.09-10.65-.32-.54-.65-1.07-.97-1.61,1.94,0,3.99.4,5.79-.11,2-.56,3.72-2.06,5.66-2.94a18.3,18.3,0,0,1,4.37-1.28c2.03-.35,4.1-.49,6.34-.73,1.21,5.25,4,8.68,10.12,9.24,4.99.46,8.62,5.31,8.45,10.3-.16,4.85-.65,9.69-.94,13.79-2.7,1.14-4.25,1.8-5.81,2.47Z"/><path d="M0,415c3.69.12,6.44,1.04,6.05,5.71-.46,5.4,3.96,4.63,7.16,5.23,2.08,3.26,1.61,8.04,6.57,9.61.87.28,1.13,4.28.71,6.37-.6,2.94-.66,4.85,2.93,5.18a2.183,2.183,0,0,1,1.62,1.01c1.9,5.01,6.39,3.95,10.06,4.05,7.15.19,13.62,1.76,18.92,6.85H.01Q-.005,436.99,0,415Z" fill="#fff"/><path d="M285.07,459c-1.31-.92-2.65-2.65-3.91-2.6-3.81.16-5.35-1.61-5.96-5.01-.81-4.56-.96-4.61-4.7-4.08-1.89-3.47-3.43-6.6-5.26-9.55-2.05-3.31-1.04-5.65,3.14-6.02.17-2.69.35-5.44.54-8.45h6.77c2.58,2.12,4.44,3.53,6.17,5.09,2.21,2.02,4.26,4.21,6.47,6.23,3.3,3.02,6.79,5.83,9.94,8.99.95.95,1.02,2.78,2.27,3.18,2.85,2.1,5.49,4.59,8.6,6.2,2.79,1.45,6.09,1.93,9.78,3.02.03.5.1,1.75.17,3Z"/><path d="M0,141.98c2.08-3.82,3.85-8.49,9.5-6.88a23.748,23.748,0,0,1,8.64,4.64c4.13,3.52,7.14,9.41,11.76,11.02,4.52,1.57,5.1,6.97,9.83,7.32.65.05,1.17,1.72,2.38,3.63h-15c-3.67,0-7.37-.34-10.99.06-6.41.71-11.87-.7-16.1-5.79Q-.01,148.99,0,141.98Z"/><path d="M562.74,338.23v26.18c-3.22,1.48-5.58,3.47-7.94,3.47-4.42-.01-6.6-3.23-7.63-7.46-.47-1.93-1.84-3.65-2.81-5.46-.42.13-.84.27-1.27.4v-8.72c-3.41-.91-8.24-.82-9.24-2.74-2.14-4.08-5.07-3.84-10.36-3.51,7.11-6.4-.29-15.69,7.42-20.94.27-7.76,4.85-5.63,9.67-4.71,4.18.8,8.62.14,12.95.29,1.59.06,3.75.05,4.66,1.01,3.66,3.9,7.73,4.3,12.65,3.03,4.78-1.23,8.57,1.57,12.4,4.03,1.88,1.21,4.18,1.77,6.98,2.9-6.95,4.21-12.33,9.56-20.39,9.03a4.161,4.161,0,0,0-2.49.99,35.25,35.25,0,0,0-3.02,2.97C563.79,338.75,563.26,338.49,562.74,338.23Z"/><path d="M534.31,96c6.72-6.17-.02-15.39,7.36-20.71.35-7.97,5.2-5.22,9.79-4.5,4.23.66,8.67-.15,12.95.32,2.35.26,4.53,1.91,6.84,2.78,2.01.77,4.48,2.38,6.09,1.8,6.11-2.19,11.14.03,16.22,2.77,2.22,1.2,4.43,2.4,6.96,3.77-6.79,4.07-12.35,9.03-20.35,8.92-1.8-.03-3.63,2.23-6.76,3v26.36c-3.33,1.43-5.7,3.29-8.05,3.27-4.83-.03-6.67-3.66-7.5-8.04-.24-1.29-1.58-2.36-2.32-3.58a8.437,8.437,0,0,1-1.53-3.11,57.775,57.775,0,0,1-.07-6.39c-3.81-1.02-8.85-1-9.68-2.87C542.36,95.59,539.42,96.35,534.31,96Z"/><path d="M249.37,47.03h-7.92c5.3-6.45,2.41-13.7,5.93-20.79,3.65-7.34,6.77-5.75,11.97-4.64,3.03.64,6.31.14,9.47.12,3.78-.02,7.39-.22,10.07,3.6.79,1.13,3.98,1.33,5.78.85,5.7-1.5,10.61.12,15.44,2.82,2.22,1.24,4.46,2.43,6.94,3.78-3.32,2.26-6.27,4.26-9.21,6.26.17.27.34.53.51.8-3.86.64-7.73,1.2-11.58,1.93-4.75.9-7.69,7.29-6.87,12.27.75,4.56.17,9.34.09,14.03a17.124,17.124,0,0,1-.48,3.04c-2.14,1.19-4.17,3.24-6.06,3.13-2.53-.15-5.71-1.36-7.26-3.24-2.09-2.54-.53-7.28-5.1-9-.77-.29-.56-3.72-.45-5.69.16-2.91-.72-4.36-3.92-4.11C253.04,52.47,249.82,51.66,249.37,47.03Z"/><path d="M421.32,285.72c-1.52-5.3-4.22-9.15-9.55-10.9-1.01-.33-1.37-2.64-.49-3.41,1.66-2.53,5.3-5.9,4.64-7.45-2.71-6.39,3-7.75,5.56-8.08,4.23-.55,4.57-2.65,4.67-6.35,1.74.5,3.1.77,4.37,1.28,5.14,2.07,11.93-.83,15.82,5.33.4.64,2.51.2,2.68,1.35,4.62,5.96,9.23,11.93,13.95,18.01,7.24.95,15.06,1.98,22.88,3,0,.61.01,1.23.01,1.84-3.91,2.2-6.07,7.76-12.3,5.63-.85-.29-2.52.84-3.39,1.72-4.02,4.09-8.74,5.02-14.13,3.65a12.656,12.656,0,0,0-2.95-.34c-4.09-.04-7.38-1.46-11.1-3.52-3.98-2.21-9.69-1.36-14.65-1.74C425.37,285.6,423.39,285.72,421.32,285.72Z"/><path d="M72.83,215.25c.37-7.77.81-15.54,1-23.32.02-.89-1.24-2.14-2.2-2.66-2.56-1.37-3.81-3.04-2.06-6.49,4.19,2.43,8.32,4.95,12.57,7.24,1.49.8,3.61.6,4.88,1.59,3.39,2.64,6.27,5.97,9.76,8.46,2.02,1.44,5.21,3.02,7.16,2.37,3.43-1.13,5.24-.1,7.66,1.91,8.8,7.3,10.1,16.69,8.21,27.49-1.33.26-2.69.53-3.91.77-.28.53-.55.81-.56,1.1-.27,5.68-3.21,9.01-8.65,10.67-1.78.54-3.14,2.44-4.69,3.72a47.945,47.945,0,0,0-3.57-4.87c-.56-.6-2.48-.38-2.62-.87-.83-2.78-.8-5.92-2.05-8.44-1.06-2.14-3.46-3.61-5.23-5.54q-6.57-6.9-13.13-13.81C74.54,214.8,73.69,215.03,72.83,215.25Z"/><path d="M220.81,285.92c-3.86-.21-7.18-1.04-7.07-7.01.08-4.47-4.09-3.99-7.35-3.4-2.22-6.15,2.05-7.29,6.45-8.33-.12.45-.24.89-.36,1.34,2.09.82,4.2,2.35,6.28,2.33,4.72-.06,8.12,2.1,11.57,4.87a32.709,32.709,0,0,0,18.81,7.25c.66.04,1.55-.2,1.96.14,5.48,4.48,10.89,9.04,16.32,13.58.24.2.47.7.65.67,5.86-.94,8.75,4.73,13.59,6.14,1.34.39,2.33,1.96,3.53,3.03-4.83,2.27-8.5,3.9-12.08,5.71-3.66,1.85-7.22,3.89-11.46,6.19-7.14-7.1-17.31-5.87-27.11-6.94-.59-1.12-1.14-3.54-2.12-3.74-5.24-1.03-4.38-4.4-3.85-8.05.31-2.15.28-3.85-2.79-5.25C223.44,293.4,222.55,289.14,220.81,285.92Z"/><path d="M289.7,170.27c.17,1.44.34,2.88.51,4.25,2.97.64,7.01.32,8.11,1.96,2.9,4.36,7.69,4.97,11.36,7.6,1.08.77,1.19,2.88,1.77,4.42-4.3,1.12-7.07,7.3-5.16,12.42,2.48,6.63-.2,11.41-4.58,15.73-3.36,3.31-11.62.96-13.45-3.54a4.985,4.985,0,0,0-2.04-2.03c-5.04-3.1-5.12-3.17-5.95-8.54-7.64-2.29-7.64-2.29-7.65-10.61,0-6.83.06-13.66-.04-20.49a45.643,45.643,0,0,0-.84-5.84C278.9,161.62,284.22,165.94,289.7,170.27Z"/><path d="M491.67,185.06a51.927,51.927,0,0,1-12.78-9.36c-.47-.5-1.48-.55-2.26-.71a18.363,18.363,0,0,1-14.69-17.62c0-3.33-.19-6.67.06-9.98.23-3.06.94-6.09,1.56-9.89,5.21.52,10.22.98,15.22,1.59.59.07,1.03,1.01,1.62,1.45,1.13.85,2.26,2.23,3.48,2.32,3.67.27,6.71.53,8.82,4.57.97,1.86,4.68,2.29,7.15,3.37.59.26,1.18.52,1.05.46a91.38,91.38,0,0,0-1.66,9.25,52.92,52.92,0,0,0,.02,10.97C500.12,178.05,497.68,182.45,491.67,185.06Z"/><path d="M53.65,29.41c6.02.61,12.79-.68,15.64,2.08,3.92,3.8,8.39,2.75,12.17,4.79.4.21,1.08.49,1.09.74.06,4.45,3.31,4.47,6.46,4.92a7.348,7.348,0,0,1,2.68,1.35,71.619,71.619,0,0,0-1.62,8.38,63.793,63.793,0,0,0,.01,11.48c.75,6.61-1.32,11.4-8.11,14.12-4.2-2.89-8.75-6.02-14.93-10.27-7.61-.94-14.38-8.4-14.24-18.23C52.86,42.57,53.32,36.37,53.65,29.41Z"/><path d="M169.61,135.54c.13-2.41.55-4.96-3.93-4.11-1.9.36-4.59.2-5.47-3.35-.42-1.69-3.83-2.63-5.24-3.51,3.6-3.43,7.56-7.21,11.52-10.98l-1.05-1.26c4.71-.14,9.85.87,12.55-4.59.19-.39,1.44-.34,2.19-.35,2.34-.04,4.68-.02,7.27-.02,1.23,5.15,4.05,8.53,10.3,9.1,5.11.47,8.11,5.25,8.23,10.55.34,15.26-.64,16.29-16.47,15.75-4.78-.16-10.59.2-14.03-5.26C174.7,136.27,171.98,136.27,169.61,135.54Z"/><path d="M413.34,107.22c-2.5,4.07-5.01,8.14-8.02,13.04-2.35.76-4.19-1.13-6.15-3.79-2.44-3.3-5.08-6.74-9.9-6.76a50.216,50.216,0,0,1-7.47-.11c-1.39-.22-2.64-1.48-3.9-2.36-.49-.34-.74-1.18-1.23-1.32-3.7-1.06-7.58-1.67-11.1-3.12a6.4,6.4,0,0,1-3.42-4.49c-.3-4.68-2.73-5.1-5.37-4.35-1.35-2.71-2.67-5.1-3.75-7.59-1.03-2.38-1.79-4.88-2.89-7.92,2.58.15,3.64.21,5.04.3V70.16h7.13c2.68,2.07,4.67,3.38,6.37,4.99,2.27,2.14,4.29,4.52,6.46,6.77,2.8,2.9,5.64,5.77,8.47,8.63a28.253,28.253,0,0,0,3.27,2.89q4.44,3.255,8.89,6.49a2.465,2.465,0,0,0,.91.39c2.84.62,7.54.45,8.17,1.97,1.55,3.74,4.17,3.46,7.07,3.64C412.4,106.36,412.87,106.79,413.34,107.22Z"/><path d="M335.2,342.13c2.81-.54,5.04-.96,7.55-1.44.26,1.49.51,2.91.79,4.5,2.99.6,6.07.99,9,1.89a29.149,29.149,0,0,1,5.5,2.93A20.189,20.189,0,0,0,361.3,352c9.48,3.15,9.8,3.54,9.87,13.41.01,1.15,0,2.3.95,2.85,1.42,1.35,4.03,2.69,4.03,4.04a24.991,24.991,0,0,1-2.16,9.23c-.68,1.64-2.6,2.78-3.62,4.58-7.96,2.28-14.11-.54-19.28-7.5-2.76-3.71-6.44-6.41-6.89-11.65-.15-1.78-2.46-3.75-4.24-4.95-5.87-3.98-4.66-9.92-4.77-15.55C335.18,345.13,335.2,343.81,335.2,342.13Z"/><path d="M189.12,406.28c-2.33.78-5.01,1.55-7.58,2.59-1.84.75-3.47,1.98-5.28,2.82s-2.96,1.76-5.3-.56c-3.83-3.78-8.96-6.27-13.7-9.04-.8-.47-2.39.41-2.57.45-5.46-7.2-10.6-13.99-15.74-20.79-.32.16-.63.32-.95.49,0-1.98-.49-4.13.14-5.88.63-1.73,2.33-4.26,3.67-4.33,6.17-.33,12.61-2,18.39,1.79.71.46,1.14,1.32,1.79,1.9,1.16,1.03,2.39,1.99,3.59,2.98a15.031,15.031,0,0,1,1.61,1.36c1.27,1.4,2.45,2.88,3.72,4.28.51.56,1.62.95,1.67,1.5.5,5.34,5.01,7.41,8.22,10.61C183.49,399.15,185.77,402.29,189.12,406.28Z"/><path d="M70.12,326.81c2.53,2.43,5.05,4.86,8.49,8.17-12.31,0-23.29.53-34.16-.31-3.4-.26-6.89-3.84-9.58-6.64-.98-1.01.12-4.19.52-6.32a62.165,62.165,0,0,1,1.99-7.96c1.61-4.89,4.88-7.01,9.67-5.29a25.757,25.757,0,0,1,12.64,9.74c2.51,3.56,6.65,5.98,10.06,8.91C69.87,327.02,69.99,326.92,70.12,326.81Z"/><path d="M565.52,208.65c.17,1.44.34,2.88.51,4.25,2.97.64,7.01.32,8.11,1.96,2.9,4.36,7.69,4.97,11.36,7.6,1.08.77,1.19,2.88,1.77,4.42-4.3,1.12-7.07,7.3-5.16,12.42,2.48,6.63-.2,11.41-4.58,15.73-3.36,3.31-11.62.96-13.45-3.54a4.986,4.986,0,0,0-2.04-2.03c-5.04-3.1-5.12-3.17-5.95-8.54-7.64-2.29-7.64-2.29-7.65-10.61,0-6.83.06-13.66-.04-20.49a45.638,45.638,0,0,0-.84-5.84C554.72,200.01,560.04,204.33,565.52,208.65Z"/></g></g><rect width="1920" height="147" transform="translate(0 155.346)" fill="url(#b)"/></g></svg>