<?xml version="1.0" encoding="utf-8"?>
<!-- Generator: Adobe Illustrator 24.0.0, SVG Export Plug-In . SVG Version: 6.00 Build 0)  -->
<svg version="1.1" id="Layer_1" xmlns="http://www.w3.org/2000/svg" xmlns:xlink="http://www.w3.org/1999/xlink" x="0px" y="0px"
	 viewBox="0 0 465.2 280" style="enable-background:new 0 0 465.2 280;" xml:space="preserve">
<style type="text/css">
	.st0{fill:#FFFFFF;}
	.st1{fill:#CF7CB3;}
</style>
<title></title>
<path class="st0" d="M269.8,90.3c0,14.2-11.5,25.8-25.8,25.8c-9,0-16.9-4.6-21.5-11.6L267,78.7C268.8,82.2,269.8,86.1,269.8,90.3z"
	/>
<path id="Path_50" class="st1" d="M424.9,66.4c-10.3-17.1-23.7-32.1-39.5-44.2c-0.9-0.5-2.3-1.3-4.1-2.1c-2.1-1.1-4.3-1.8-6.7-2.2
	c-1.6-0.2-3.1-0.2-4.7,0c-1.5,0.7-2.8,1.9-3.7,3.3c-2.2,3.6-0.9,7.9,0.8,13.3c1.5,4.6,3.5,8.9,6.1,13c3.6,5.6,6.4,11.8,9.9,17.5
	c4.4,7.1,10.3,20.1,16.7,45.8c2.1,18.1-0.4,32.8-5.6,39.8c-2.3,3.2-5.3,5.7-8.8,7.5c-3,1.1-6.1,1.6-9.3,1.4
	c-6.2,0-15.3,1.7-22.5-9.2s-35.1-89.8-57.7-114S260,15.6,256.9,12.8c0,0-26.1-2.8-34.2,0c-9.7,2.4-19.1,6-28,10.8l-50.2,1.7v0.2
	c-12-0.6-21.9-0.9-29.7-0.9c-13.1,0-27.4,0.6-43,1.4s-32.6,1.4-51.4,1.4c-1.4,0-1.6,0.8-1.4,2.2c-0.3,0-0.3,0-0.3,0.3
	c0,4.4,0.3,24.1,0.6,59.1c0.3,7.4,0.3,15.9,0.3,25.4c0.3,45.1,0,80.4-1.1,105.6c-0.3,0.6-0.1,1.3,0.5,1.6c0,0,0,0,0,0
	c0.3,0.6,1,0.9,1.6,0.6c0,0,0,0,0,0c28.3-3,56.7-3.8,85.1-2.5l23.5,0.8l15.2,0.5c11.4,0.4,20.6,0.6,27.6,0.8h32.7
	c0,0,12-24,27.9-25.9c2.6,12.5,8,24.3,15.8,34.6c21.4,28.1,53.4,33.4,61.3,34.5l11.2-0.9c-13.9-6.5-26-16.2-35.3-28.2
	c-6.5-8.5-11.5-18-14.9-28.1c9,6.7,46.2,33,93.7,25.5c20.6-2.7,39.8-11.6,55-25.7c11.4-10.8,20.8-26.5,26.3-50.7
	C445.8,156.6,454.2,104.2,424.9,66.4z M74.6,94.6l0.8-17.2c16-1.5,32.1-2.1,48.1-1.9c7.6,0,14.6,0,20.9,0.1v26.6
	c-1.6,0-3.2-0.1-4.8-0.1H100c-12,0-20.8,0-26,0.3C74.3,99.8,74.5,97.2,74.6,94.6L74.6,94.6z M129.5,172.6
	c-18.1-0.4-36.1,0.2-54.2,1.6c-1.3-9-2.1-18-2.2-27.1c6.5-1,13.1-1.7,19.7-1.9c9.4-0.2,18.8,0.1,28.2,0.8c1.8,0,3.7,0,5.5,0.3
	c6.9,0.6,12.9,0.9,17.9,1V173C139.7,172.8,134.7,172.7,129.5,172.6z"/>
<path class="st0" d="M279,98.7c0,9.3-7.6,16.9-16.9,16.9c-7.4,0-13.8-4.8-16-11.5l26.8-18.4C276.6,88.8,279,93.5,279,98.7z"/>
</svg>
