<svg xmlns="http://www.w3.org/2000/svg" xmlns:xlink="http://www.w3.org/1999/xlink" width="64" height="64" viewBox="0 0 64 64">
  <defs>
    <style>
      .social-media--soundcloud-1 {
        fill: #1777f2;
      }

      .social-media--soundcloud-2 {
        fill: #fff;
      }

      .social-media--soundcloud-3 {
        clip-path: url(#social-media--soundcloud-clip-path);
      }

      .social-media--soundcloud-4 {
        fill: none;
        stroke: #fff;
        stroke-miterlimit: 10;
        stroke-width: 1.5px;
      }

      .social-media--soundcloud-5 {
        clip-path: url(#social-media--soundcloud-clip-path-2);
      }

      .social-media--soundcloud-6 {
        clip-path: url(#social-media--soundcloud-clip-path-3);
      }

      .social-media--soundcloud-7 {
        clip-path: url(#social-media--soundcloud-clip-path-4);
      }

      .social-media--soundcloud-8 {
        clip-path: url(#social-media--soundcloud-clip-path-5);
      }

      .social-media--soundcloud-9 {
        clip-path: url(#social-media--soundcloud-clip-path-6);
      }

      .social-media--soundcloud-10 {
        clip-path: url(#social-media--soundcloud-clip-path-7);
      }

      .social-media--soundcloud-11 {
        clip-path: url(#social-media--soundcloud-clip-path-8);
      }
    </style>
    <clipPath id="social-media--soundcloud-clip-path">
      <path id="Path_75" data-name="Path 75" d="M32.376,22.264a10.212,10.212,0,0,0-3.537,3.6,7.751,7.751,0,0,0-12.465,4.255,5.841,5.841,0,1,0-2.4,11.2v0h18.4V22.264Z" transform="translate(-30.739 -20.76)"/>
    </clipPath>
    <clipPath id="social-media--soundcloud-clip-path-2">
      <path id="Path_76" data-name="Path 76" d="M32.376,22.264a10.212,10.212,0,0,0-3.537,3.6,7.751,7.751,0,0,0-12.465,4.255,5.841,5.841,0,1,0-2.4,11.2v0h18.4V22.264Z" transform="translate(-27.624 -20.793)"/>
    </clipPath>
    <clipPath id="social-media--soundcloud-clip-path-3">
      <path id="Path_77" data-name="Path 77" d="M32.376,22.264a10.212,10.212,0,0,0-3.537,3.6,7.751,7.751,0,0,0-12.465,4.255,5.841,5.841,0,1,0-2.4,11.2v0h18.4V22.264Z" transform="translate(-24.51 -20.793)"/>
    </clipPath>
    <clipPath id="social-media--soundcloud-clip-path-4">
      <path id="Path_78" data-name="Path 78" d="M32.376,22.264a10.212,10.212,0,0,0-3.537,3.6,7.751,7.751,0,0,0-12.465,4.255,5.841,5.841,0,1,0-2.4,11.2v0h18.4V22.264Z" transform="translate(-21.396 -20.793)"/>
    </clipPath>
    <clipPath id="social-media--soundcloud-clip-path-5">
      <path id="Path_79" data-name="Path 79" d="M32.376,22.264a10.212,10.212,0,0,0-3.537,3.6,7.751,7.751,0,0,0-12.465,4.255,5.841,5.841,0,1,0-2.4,11.2v0h18.4V22.264Z" transform="translate(-18.281 -20.793)"/>
    </clipPath>
    <clipPath id="social-media--soundcloud-clip-path-6">
      <path id="Path_80" data-name="Path 80" d="M32.376,22.264a10.212,10.212,0,0,0-3.537,3.6,7.751,7.751,0,0,0-12.465,4.255,5.841,5.841,0,1,0-2.4,11.2v0h18.4V22.264Z" transform="translate(-15.167 -20.793)"/>
    </clipPath>
    <clipPath id="social-media--soundcloud-clip-path-7">
      <path id="Path_81" data-name="Path 81" d="M32.376,22.264a10.212,10.212,0,0,0-3.537,3.6,7.751,7.751,0,0,0-12.465,4.255,5.841,5.841,0,1,0-2.4,11.2v0h18.4V22.264Z" transform="translate(-12.053 -20.793)"/>
    </clipPath>
    <clipPath id="social-media--soundcloud-clip-path-8">
      <path id="Path_82" data-name="Path 82" d="M32.376,22.264a10.212,10.212,0,0,0-3.537,3.6,7.751,7.751,0,0,0-12.465,4.255,5.841,5.841,0,1,0-2.4,11.2v0h18.4V22.264Z" transform="translate(-8.939 -20.793)"/>
    </clipPath>
  </defs>
  <path id="Path_73" data-name="Path 73" class="social-media--soundcloud-1" d="M32,0A32,32,0,1,0,64,32,32,32,0,0,0,32,0Z"/>
  <path id="Path_74" data-name="Path 74" class="social-media--soundcloud-2" d="M49.939,29.645a5.816,5.816,0,0,0-2.224.441,10.137,10.137,0,0,0-10.1-9.292,10.029,10.029,0,0,0-4.543,1.1V41.33H49.939a5.843,5.843,0,0,0,0-11.686Z"/>
  <g id="Group_15" data-name="Group 15" class="social-media--soundcloud-3" transform="translate(30.739 20.76)">
    <line id="Line_10" data-name="Line 10" class="social-media--soundcloud-4" y2="23.118"/>
  </g>
  <g id="Group_16" data-name="Group 16" class="social-media--soundcloud-5" transform="translate(27.624 20.793)">
    <line id="Line_11" data-name="Line 11" class="social-media--soundcloud-4" y2="23.118"/>
  </g>
  <g id="Group_17" data-name="Group 17" class="social-media--soundcloud-6" transform="translate(24.51 20.793)">
    <line id="Line_12" data-name="Line 12" class="social-media--soundcloud-4" y2="23.118"/>
  </g>
  <g id="Group_18" data-name="Group 18" class="social-media--soundcloud-7" transform="translate(21.396 20.793)">
    <line id="Line_13" data-name="Line 13" class="social-media--soundcloud-4" y2="23.118"/>
  </g>
  <g id="Group_19" data-name="Group 19" class="social-media--soundcloud-8" transform="translate(18.281 20.793)">
    <line id="Line_14" data-name="Line 14" class="social-media--soundcloud-4" y2="23.118"/>
  </g>
  <g id="Group_20" data-name="Group 20" class="social-media--soundcloud-9" transform="translate(15.167 20.793)">
    <line id="Line_15" data-name="Line 15" class="social-media--soundcloud-4" y2="23.118"/>
  </g>
  <g id="Group_21" data-name="Group 21" class="social-media--soundcloud-10" transform="translate(12.053 20.793)">
    <line id="Line_16" data-name="Line 16" class="social-media--soundcloud-4" y2="23.118"/>
  </g>
  <g id="Group_22" data-name="Group 22" class="social-media--soundcloud-11" transform="translate(8.939 20.793)">
    <line id="Line_17" data-name="Line 17" class="social-media--soundcloud-4" y2="23.118"/>
  </g>
</svg>
