<svg xmlns="http://www.w3.org/2000/svg" width="60" height="60" viewBox="0 0 60 60">
  <defs>
    <style>
      .social-media--twitter-1 {
        fill: #1777f2;
      }

      .social-media--twitter-1, .social-media--twitter-2 {
        fill-rule: evenodd;
      }

      .social-media--twitter-2 {
        fill: #fff;
      }
    </style>
  </defs>
  <g>
    <path class="social-media--twitter-1" d="M3,0H57a2.993,2.993,0,0,1,3,3V57a2.993,2.993,0,0,1-3,3H3a2.993,2.993,0,0,1-3-3V3A2.993,2.993,0,0,1,3,0Z"/>
  </g>
  <g transform="translate(9 12)">
    <path data-name="twitter" class="social-media--twitter-2" d="M32.052,6.437a6.591,6.591,0,0,0-4.838-2.282,6.7,6.7,0,0,0-6.628,6.908,7.464,7.464,0,0,0,.172,1.6A18.684,18.684,0,0,1,7.1,5.115a7.332,7.332,0,0,0-.9,3.544,7.3,7.3,0,0,0,2.949,5.922,6.336,6.336,0,0,1-3-.916c0,.029,0,.059,0,.089a7.041,7.041,0,0,0,5.317,6.977,6.239,6.239,0,0,1-2.993.1,6.735,6.735,0,0,0,6.192,4.933,12.794,12.794,0,0,1-8.232,3,12.629,12.629,0,0,1-1.581-.1,17.886,17.886,0,0,0,10.161,3.186c12.192,0,18.859-10.607,18.859-19.809q0-.453-.019-.9a13.633,13.633,0,0,0,3.307-3.556A12.649,12.649,0,0,1,33.347,8.62a6.8,6.8,0,0,0,2.914-3.806A12.725,12.725,0,0,1,32.052,6.437Z"/>
  </g>
</svg>
